<svg xmlns="http://www.w3.org/2000/svg" width="1280" height="640" viewBox="0 0 1280 640" role="img" aria-label="httpcrabber — network-level traffic interceptor">
  <title>httpcrabber — network-level traffic interceptor</title>
  <defs>
    <linearGradient id="word" gradientUnits="userSpaceOnUse" x1="0" y1="0" x2="650" y2="0">
      <stop offset="0" stop-color="#39ff14"/><stop offset="0.5" stop-color="#00e5ff"/><stop offset="1" stop-color="#ff2fd0"/>
    </linearGradient>
    <filter id="glow" x="-10%" y="-30%" width="120%" height="160%">
      <feGaussianBlur stdDeviation="5" result="b"/>
      <feMerge><feMergeNode in="b"/><feMergeNode in="SourceGraphic"/></feMerge>
    </filter>
    <pattern id="grid" width="32" height="32" patternUnits="userSpaceOnUse">
      <path d="M32 0H0V32" fill="none" stroke="#39ff14" stroke-opacity="0.07"/>
    </pattern>
  </defs>
  <radialGradient id="halo" cx="0.2" cy="0.5" r="0.45">
    <stop offset="0" stop-color="#ff5a36" stop-opacity="0.2"/><stop offset="1" stop-color="#ff5a36" stop-opacity="0"/>
  </radialGradient>
  <radialGradient id="halo2" cx="0.85" cy="0.1" r="0.6">
    <stop offset="0" stop-color="#ff2fd0" stop-opacity="0.14"/><stop offset="1" stop-color="#ff2fd0" stop-opacity="0"/>
  </radialGradient>
  <rect width="1280" height="640" fill="#0b0f0c"/>
  <rect width="1280" height="640" fill="url(#grid)"/>
  <rect width="1280" height="640" fill="url(#halo)"/>
  <rect width="1280" height="640" fill="url(#halo2)"/>
  <rect x="24" y="24" width="1232" height="592" rx="22" fill="none" stroke="#ff2fd0" stroke-opacity="0.35"/>
  <g transform="translate(90 212)" shape-rendering="crispEdges"><rect x="14" y="0" width="14" height="14" fill="#ff5a36"/><rect x="70" y="0" width="14" height="14" fill="#ff5a36"/><rect x="266" y="0" width="14" height="14" fill="#ff5a36"/><rect x="322" y="0" width="14" height="14" fill="#ff5a36"/><rect x="14" y="14" width="14" height="14" fill="#ff5a36"/><rect x="28" y="14" width="14" height="14" fill="#ff5a36"/><rect x="56" y="14" width="14" height="14" fill="#ff5a36"/><rect x="70" y="14" width="14" height="14" fill="#ff5a36"/><rect x="266" y="14" width="14" height="14" fill="#ff5a36"/><rect x="280" y="14" width="14" height="14" fill="#ff5a36"/><rect x="308" y="14" width="14" height="14" fill="#ff5a36"/><rect x="322" y="14" width="14" height="14" fill="#ff5a36"/><rect x="14" y="28" width="14" height="14" fill="#ff5a36"/><rect x="28" y="28" width="14" height="14" fill="#ff5a36"/><rect x="42" y="28" width="14" height="14" fill="#ff5a36"/><rect x="56" y="28" width="14" height="14" fill="#ff5a36"/><rect x="70" y="28" width="14" height="14" fill="#ff5a36"/><rect x="112" y="28" width="14" height="14" fill="#ffffff"/><rect x="126" y="28" width="14" height="14" fill="#ffffff"/><rect x="140" y="28" width="14" height="14" fill="#ffffff"/><rect x="196" y="28" width="14" height="14" fill="#ffffff"/><rect x="210" y="28" width="14" height="14" fill="#ffffff"/><rect x="224" y="28" width="14" height="14" fill="#ffffff"/><rect x="266" y="28" width="14" height="14" fill="#ff5a36"/><rect x="280" y="28" width="14" height="14" fill="#ff5a36"/><rect x="294" y="28" width="14" height="14" fill="#ff5a36"/><rect x="308" y="28" width="14" height="14" fill="#ff5a36"/><rect x="322" y="28" width="14" height="14" fill="#ff5a36"/><rect x="28" y="42" width="14" height="14" fill="#ff5a36"/><rect x="42" y="42" width="14" height="14" fill="#ff5a36"/><rect x="56" y="42" width="14" height="14" fill="#ff5a36"/><rect x="112" y="42" width="14" height="14" fill="#ffffff"/><rect x="126" y="42" width="14" height="14" fill="#0b0f0c"/><rect x="140" y="42" width="14" height="14" fill="#ffffff"/><rect x="196" y="42" width="14" height="14" fill="#ffffff"/><rect x="210" y="42" width="14" height="14" fill="#0b0f0c"/><rect x="224" y="42" width="14" height="14" fill="#ffffff"/><rect x="280" y="42" width="14" height="14" fill="#ff5a36"/><rect x="294" y="42" width="14" height="14" fill="#ff5a36"/><rect x="308" y="42" width="14" height="14" fill="#ff5a36"/><rect x="42" y="56" width="14" height="14" fill="#ff5a36"/><rect x="112" y="56" width="14" height="14" fill="#ffffff"/><rect x="126" y="56" width="14" height="14" fill="#ffffff"/><rect x="140" y="56" width="14" height="14" fill="#ffffff"/><rect x="196" y="56" width="14" height="14" fill="#ffffff"/><rect x="210" y="56" width="14" height="14" fill="#ffffff"/><rect x="224" y="56" width="14" height="14" fill="#ffffff"/><rect x="294" y="56" width="14" height="14" fill="#ff5a36"/><rect x="42" y="70" width="14" height="14" fill="#ff5a36"/><rect x="56" y="70" width="14" height="14" fill="#ff5a36"/><rect x="126" y="70" width="14" height="14" fill="#ff5a36"/><rect x="210" y="70" width="14" height="14" fill="#ff5a36"/><rect x="280" y="70" width="14" height="14" fill="#ff5a36"/><rect x="294" y="70" width="14" height="14" fill="#ff5a36"/><rect x="56" y="84" width="14" height="14" fill="#ff5a36"/><rect x="70" y="84" width="14" height="14" fill="#ff5a36"/><rect x="84" y="84" width="14" height="14" fill="#ff5a36"/><rect x="98" y="84" width="14" height="14" fill="#ff5a36"/><rect x="112" y="84" width="14" height="14" fill="#ff5a36"/><rect x="126" y="84" width="14" height="14" fill="#ff5a36"/><rect x="140" y="84" width="14" height="14" fill="#ff5a36"/><rect x="154" y="84" width="14" height="14" fill="#ff5a36"/><rect x="168" y="84" width="14" height="14" fill="#ff5a36"/><rect x="182" y="84" width="14" height="14" fill="#ff5a36"/><rect x="196" y="84" width="14" height="14" fill="#ff5a36"/><rect x="210" y="84" width="14" height="14" fill="#ff5a36"/><rect x="224" y="84" width="14" height="14" fill="#ff5a36"/><rect x="238" y="84" width="14" height="14" fill="#ff5a36"/><rect x="252" y="84" width="14" height="14" fill="#ff5a36"/><rect x="266" y="84" width="14" height="14" fill="#ff5a36"/><rect x="280" y="84" width="14" height="14" fill="#ff5a36"/><rect x="42" y="98" width="14" height="14" fill="#ff5a36"/><rect x="56" y="98" width="14" height="14" fill="#ff5a36"/><rect x="70" y="98" width="14" height="14" fill="#ff5a36"/><rect x="84" y="98" width="14" height="14" fill="#ff9a6e"/><rect x="98" y="98" width="14" height="14" fill="#ff9a6e"/><rect x="112" y="98" width="14" height="14" fill="#ff5a36"/><rect x="126" y="98" width="14" height="14" fill="#ff5a36"/><rect x="140" y="98" width="14" height="14" fill="#ff5a36"/><rect x="154" y="98" width="14" height="14" fill="#ff5a36"/><rect x="168" y="98" width="14" height="14" fill="#ff5a36"/><rect x="182" y="98" width="14" height="14" fill="#ff5a36"/><rect x="196" y="98" width="14" height="14" fill="#ff5a36"/><rect x="210" y="98" width="14" height="14" fill="#ff5a36"/><rect x="224" y="98" width="14" height="14" fill="#ff5a36"/><rect x="238" y="98" width="14" height="14" fill="#ff9a6e"/><rect x="252" y="98" width="14" height="14" fill="#ff9a6e"/><rect x="266" y="98" width="14" height="14" fill="#ff5a36"/><rect x="280" y="98" width="14" height="14" fill="#ff5a36"/><rect x="294" y="98" width="14" height="14" fill="#ff5a36"/><rect x="0" y="112" width="14" height="14" fill="#ff5a36"/><rect x="14" y="112" width="14" height="14" fill="#ff5a36"/><rect x="28" y="112" width="14" height="14" fill="#ff5a36"/><rect x="42" y="112" width="14" height="14" fill="#ff5a36"/><rect x="56" y="112" width="14" height="14" fill="#ff5a36"/><rect x="70" y="112" width="14" height="14" fill="#ff9a6e"/><rect x="84" y="112" width="14" height="14" fill="#ff9a6e"/><rect x="98" y="112" width="14" height="14" fill="#ff5a36"/><rect x="112" y="112" width="14" height="14" fill="#ff5a36"/><rect x="126" y="112" width="14" height="14" fill="#0b0f0c"/><rect x="140" y="112" width="14" height="14" fill="#ff5a36"/><rect x="154" y="112" width="14" height="14" fill="#ff5a36"/><rect x="168" y="112" width="14" height="14" fill="#ff5a36"/><rect x="182" y="112" width="14" height="14" fill="#ff5a36"/><rect x="196" y="112" width="14" height="14" fill="#ff5a36"/><rect x="210" y="112" width="14" height="14" fill="#0b0f0c"/><rect x="224" y="112" width="14" height="14" fill="#ff5a36"/><rect x="238" y="112" width="14" height="14" fill="#ff5a36"/><rect x="252" y="112" width="14" height="14" fill="#ff9a6e"/><rect x="266" y="112" width="14" height="14" fill="#ff9a6e"/><rect x="280" y="112" width="14" height="14" fill="#ff5a36"/><rect x="294" y="112" width="14" height="14" fill="#ff5a36"/><rect x="308" y="112" width="14" height="14" fill="#ff5a36"/><rect x="322" y="112" width="14" height="14" fill="#ff5a36"/><rect x="336" y="112" width="14" height="14" fill="#ff5a36"/><rect x="42" y="126" width="14" height="14" fill="#ff5a36"/><rect x="56" y="126" width="14" height="14" fill="#ff5a36"/><rect x="70" y="126" width="14" height="14" fill="#ff5a36"/><rect x="84" y="126" width="14" height="14" fill="#ff5a36"/><rect x="98" y="126" width="14" height="14" fill="#ff5a36"/><rect x="112" y="126" width="14" height="14" fill="#ff5a36"/><rect x="126" y="126" width="14" height="14" fill="#ff5a36"/><rect x="140" y="126" width="14" height="14" fill="#0b0f0c"/><rect x="154" y="126" width="14" height="14" fill="#0b0f0c"/><rect x="168" y="126" width="14" height="14" fill="#0b0f0c"/><rect x="182" y="126" width="14" height="14" fill="#0b0f0c"/><rect x="196" y="126" width="14" height="14" fill="#0b0f0c"/><rect x="210" y="126" width="14" height="14" fill="#ff5a36"/><rect x="224" y="126" width="14" height="14" fill="#ff5a36"/><rect x="238" y="126" width="14" height="14" fill="#ff5a36"/><rect x="252" y="126" width="14" height="14" fill="#ff5a36"/><rect x="266" y="126" width="14" height="14" fill="#ff5a36"/><rect x="280" y="126" width="14" height="14" fill="#ff5a36"/><rect x="294" y="126" width="14" height="14" fill="#ff5a36"/><rect x="0" y="140" width="14" height="14" fill="#ff5a36"/><rect x="14" y="140" width="14" height="14" fill="#ff5a36"/><rect x="28" y="140" width="14" height="14" fill="#ff5a36"/><rect x="42" y="140" width="14" height="14" fill="#ff5a36"/><rect x="56" y="140" width="14" height="14" fill="#ff5a36"/><rect x="70" y="140" width="14" height="14" fill="#ff5a36"/><rect x="84" y="140" width="14" height="14" fill="#ff5a36"/><rect x="98" y="140" width="14" height="14" fill="#ff5a36"/><rect x="112" y="140" width="14" height="14" fill="#ff5a36"/><rect x="126" y="140" width="14" height="14" fill="#ff5a36"/><rect x="140" y="140" width="14" height="14" fill="#ff5a36"/><rect x="154" y="140" width="14" height="14" fill="#ff5a36"/><rect x="168" y="140" width="14" height="14" fill="#ff5a36"/><rect x="182" y="140" width="14" height="14" fill="#ff5a36"/><rect x="196" y="140" width="14" height="14" fill="#ff5a36"/><rect x="210" y="140" width="14" height="14" fill="#ff5a36"/><rect x="224" y="140" width="14" height="14" fill="#ff5a36"/><rect x="238" y="140" width="14" height="14" fill="#ff5a36"/><rect x="252" y="140" width="14" height="14" fill="#ff5a36"/><rect x="266" y="140" width="14" height="14" fill="#ff5a36"/><rect x="280" y="140" width="14" height="14" fill="#ff5a36"/><rect x="294" y="140" width="14" height="14" fill="#ff5a36"/><rect x="308" y="140" width="14" height="14" fill="#ff5a36"/><rect x="322" y="140" width="14" height="14" fill="#ff5a36"/><rect x="336" y="140" width="14" height="14" fill="#ff5a36"/><rect x="42" y="154" width="14" height="14" fill="#ff5a36"/><rect x="56" y="154" width="14" height="14" fill="#ff5a36"/><rect x="70" y="154" width="14" height="14" fill="#b8321b"/><rect x="84" y="154" width="14" height="14" fill="#b8321b"/><rect x="98" y="154" width="14" height="14" fill="#b8321b"/><rect x="112" y="154" width="14" height="14" fill="#b8321b"/><rect x="126" y="154" width="14" height="14" fill="#b8321b"/><rect x="140" y="154" width="14" height="14" fill="#b8321b"/><rect x="154" y="154" width="14" height="14" fill="#b8321b"/><rect x="168" y="154" width="14" height="14" fill="#b8321b"/><rect x="182" y="154" width="14" height="14" fill="#b8321b"/><rect x="196" y="154" width="14" height="14" fill="#b8321b"/><rect x="210" y="154" width="14" height="14" fill="#b8321b"/><rect x="224" y="154" width="14" height="14" fill="#b8321b"/><rect x="238" y="154" width="14" height="14" fill="#b8321b"/><rect x="252" y="154" width="14" height="14" fill="#b8321b"/><rect x="266" y="154" width="14" height="14" fill="#b8321b"/><rect x="280" y="154" width="14" height="14" fill="#ff5a36"/><rect x="294" y="154" width="14" height="14" fill="#ff5a36"/><rect x="28" y="168" width="14" height="14" fill="#ff5a36"/><rect x="70" y="168" width="14" height="14" fill="#ff5a36"/><rect x="266" y="168" width="14" height="14" fill="#ff5a36"/><rect x="308" y="168" width="14" height="14" fill="#ff5a36"/><rect x="14" y="182" width="14" height="14" fill="#ff5a36"/><rect x="84" y="182" width="14" height="14" fill="#ff5a36"/><rect x="252" y="182" width="14" height="14" fill="#ff5a36"/><rect x="322" y="182" width="14" height="14" fill="#ff5a36"/></g>
  <g transform="translate(560 150)" shape-rendering="crispEdges" filter="url(#glow)"><g fill="url(#word)"><rect x="0" y="0" width="10" height="10"/><rect x="0" y="10" width="10" height="10"/><rect x="0" y="20" width="10" height="10"/><rect x="10" y="20" width="10" height="10"/><rect x="20" y="20" width="10" height="10"/><rect x="30" y="20" width="10" height="10"/><rect x="0" y="30" width="10" height="10"/><rect x="40" y="30" width="10" height="10"/><rect x="0" y="40" width="10" height="10"/><rect x="40" y="40" width="10" height="10"/><rect x="0" y="50" width="10" height="10"/><rect x="40" y="50" width="10" height="10"/><rect x="0" y="60" width="10" height="10"/><rect x="40" y="60" width="10" height="10"/><rect x="70" y="0" width="10" height="10"/><rect x="70" y="10" width="10" height="10"/><rect x="60" y="20" width="10" height="10"/><rect x="70" y="20" width="10" height="10"/><rect x="80" y="20" width="10" height="10"/><rect x="90" y="20" width="10" height="10"/><rect x="70" y="30" width="10" height="10"/><rect x="70" y="40" width="10" height="10"/><rect x="70" y="50" width="10" height="10"/><rect x="100" y="50" width="10" height="10"/><rect x="80" y="60" width="10" height="10"/><rect x="90" y="60" width="10" height="10"/><rect x="130" y="0" width="10" height="10"/><rect x="130" y="10" width="10" height="10"/><rect x="120" y="20" width="10" height="10"/><rect x="130" y="20" width="10" height="10"/><rect x="140" y="20" width="10" height="10"/><rect x="150" y="20" width="10" height="10"/><rect x="130" y="30" width="10" height="10"/><rect x="130" y="40" width="10" height="10"/><rect x="130" y="50" width="10" height="10"/><rect x="160" y="50" width="10" height="10"/><rect x="140" y="60" width="10" height="10"/><rect x="150" y="60" width="10" height="10"/><rect x="180" y="20" width="10" height="10"/><rect x="190" y="20" width="10" height="10"/><rect x="200" y="20" width="10" height="10"/><rect x="210" y="20" width="10" height="10"/><rect x="180" y="30" width="10" height="10"/><rect x="220" y="30" width="10" height="10"/><rect x="180" y="40" width="10" height="10"/><rect x="220" y="40" width="10" height="10"/><rect x="180" y="50" width="10" height="10"/><rect x="220" y="50" width="10" height="10"/><rect x="180" y="60" width="10" height="10"/><rect x="190" y="60" width="10" height="10"/><rect x="200" y="60" width="10" height="10"/><rect x="210" y="60" width="10" height="10"/><rect x="180" y="70" width="10" height="10"/><rect x="180" y="80" width="10" height="10"/><rect x="250" y="20" width="10" height="10"/><rect x="260" y="20" width="10" height="10"/><rect x="270" y="20" width="10" height="10"/><rect x="240" y="30" width="10" height="10"/><rect x="280" y="30" width="10" height="10"/><rect x="240" y="40" width="10" height="10"/><rect x="240" y="50" width="10" height="10"/><rect x="280" y="50" width="10" height="10"/><rect x="250" y="60" width="10" height="10"/><rect x="260" y="60" width="10" height="10"/><rect x="270" y="60" width="10" height="10"/><rect x="300" y="20" width="10" height="10"/><rect x="320" y="20" width="10" height="10"/><rect x="330" y="20" width="10" height="10"/><rect x="300" y="30" width="10" height="10"/><rect x="310" y="30" width="10" height="10"/><rect x="340" y="30" width="10" height="10"/><rect x="300" y="40" width="10" height="10"/><rect x="300" y="50" width="10" height="10"/><rect x="300" y="60" width="10" height="10"/><rect x="370" y="20" width="10" height="10"/><rect x="380" y="20" width="10" height="10"/><rect x="390" y="20" width="10" height="10"/><rect x="400" y="30" width="10" height="10"/><rect x="370" y="40" width="10" height="10"/><rect x="380" y="40" width="10" height="10"/><rect x="390" y="40" width="10" height="10"/><rect x="400" y="40" width="10" height="10"/><rect x="360" y="50" width="10" height="10"/><rect x="400" y="50" width="10" height="10"/><rect x="370" y="60" width="10" height="10"/><rect x="380" y="60" width="10" height="10"/><rect x="390" y="60" width="10" height="10"/><rect x="400" y="60" width="10" height="10"/><rect x="420" y="0" width="10" height="10"/><rect x="420" y="10" width="10" height="10"/><rect x="420" y="20" width="10" height="10"/><rect x="430" y="20" width="10" height="10"/><rect x="440" y="20" width="10" height="10"/><rect x="450" y="20" width="10" height="10"/><rect x="420" y="30" width="10" height="10"/><rect x="460" y="30" width="10" height="10"/><rect x="420" y="40" width="10" height="10"/><rect x="460" y="40" width="10" height="10"/><rect x="420" y="50" width="10" height="10"/><rect x="460" y="50" width="10" height="10"/><rect x="420" y="60" width="10" height="10"/><rect x="430" y="60" width="10" height="10"/><rect x="440" y="60" width="10" height="10"/><rect x="450" y="60" width="10" height="10"/><rect x="480" y="0" width="10" height="10"/><rect x="480" y="10" width="10" height="10"/><rect x="480" y="20" width="10" height="10"/><rect x="490" y="20" width="10" height="10"/><rect x="500" y="20" width="10" height="10"/><rect x="510" y="20" width="10" height="10"/><rect x="480" y="30" width="10" height="10"/><rect x="520" y="30" width="10" height="10"/><rect x="480" y="40" width="10" height="10"/><rect x="520" y="40" width="10" height="10"/><rect x="480" y="50" width="10" height="10"/><rect x="520" y="50" width="10" height="10"/><rect x="480" y="60" width="10" height="10"/><rect x="490" y="60" width="10" height="10"/><rect x="500" y="60" width="10" height="10"/><rect x="510" y="60" width="10" height="10"/><rect x="550" y="20" width="10" height="10"/><rect x="560" y="20" width="10" height="10"/><rect x="570" y="20" width="10" height="10"/><rect x="540" y="30" width="10" height="10"/><rect x="580" y="30" width="10" height="10"/><rect x="540" y="40" width="10" height="10"/><rect x="550" y="40" width="10" height="10"/><rect x="560" y="40" width="10" height="10"/><rect x="570" y="40" width="10" height="10"/><rect x="580" y="40" width="10" height="10"/><rect x="540" y="50" width="10" height="10"/><rect x="550" y="60" width="10" height="10"/><rect x="560" y="60" width="10" height="10"/><rect x="570" y="60" width="10" height="10"/><rect x="600" y="20" width="10" height="10"/><rect x="620" y="20" width="10" height="10"/><rect x="630" y="20" width="10" height="10"/><rect x="600" y="30" width="10" height="10"/><rect x="610" y="30" width="10" height="10"/><rect x="640" y="30" width="10" height="10"/><rect x="600" y="40" width="10" height="10"/><rect x="600" y="50" width="10" height="10"/><rect x="600" y="60" width="10" height="10"/></g></g>
  <g font-family="ui-monospace, 'JetBrains Mono', 'Fira Code', Consolas, monospace">
    <text x="560" y="304" font-size="27" fill="#d6ded6">Network-level traffic interceptor</text>
    <text x="560" y="342" font-size="27" fill="#d6ded6">for reverse-engineering web APIs.</text>
    <text x="560" y="390" font-size="21" fill="#00e5ff">invisible to in-page JavaScript protections</text>
    <g font-size="17">
      <rect x="560" y="428" width="620" height="112" rx="10" fill="#0f1511" stroke="#39ff14" stroke-opacity="0.25"/>
      <text x="584" y="462"><tspan>&#160;&#160;</tspan><tspan fill="#5f6f5f">14:22:07&#160;│&#160;</tspan><tspan fill="#ff2fd0" font-weight="700">POST&#160;&#160;&#160;</tspan><tspan fill="#39ff14" font-weight="700">200&#160;</tspan><tspan fill="#5f6f5f">│&#160;</tspan><tspan fill="#ffffff">api.target.com</tspan><tspan fill="#5f6f5f">/v2/graphql</tspan></text><text x="584" y="492"><tspan>&#160;&#160;</tspan><tspan fill="#5f6f5f">14:22:08&#160;│&#160;</tspan><tspan fill="#ff2fd0" font-weight="700">WS&#160;&#160;&#160;&#160;&#160;</tspan><tspan fill="#39ff14" font-weight="700">→&#160;&#160;&#160;</tspan><tspan fill="#5f6f5f">│&#160;</tspan><tspan fill="#ffffff">realtime.target.com</tspan><tspan fill="#5f6f5f">/socket</tspan></text><text x="584" y="522"><tspan fill="#39ff14">▸&#160;</tspan><tspan fill="#9aa89a">14:22:09&#160;│&#160;</tspan><tspan fill="#00e5ff" font-weight="700">GET&#160;&#160;&#160;&#160;</tspan><tspan fill="#39ff14" font-weight="700">200&#160;</tspan><tspan fill="#5f6f5f">│&#160;</tspan><tspan fill="#ffffff" font-weight="700">cdn.target.com</tspan><tspan fill="#9aa89a">/main.js</tspan></text>
    </g>
    <text x="96" y="582" font-size="18" fill="#5f6f5f">mitmproxy · socks5 · websocket · js capture · windows · macos · linux</text>
  </g>
</svg>
